# xmcd
#
# Track frame offsets:
#	150
#	24179
#	46882
#	75741
#	93491
#	125185
#	150781
#	166320
#	188060
#	205771
#	227695
#	249262
#
# Disc length: 3931 seconds
#
# Revision: 3
# Processed by: cddbd v1.5.2PL0 Copyright (c) Steve Scherf et al.
# Submitted via: EasyCDDAExtractor 16.0.6.1
#
DISCID=860f590c
DTITLE=Harmonica Shah - Havin' Nothin' Don't Bother Me
DYEAR=2013
DGENRE=Blues
TTITLE0=All My Kids Is Ugly
TTITLE1=Shake It Mama, On Down The Street
TTITLE2=Short Haired Woman
TTITLE3=I'm Gonna Miss You Like The Devil
TTITLE4=Her Eyes Turn Green As Grass
TTITLE5=Havin' Nothing Don't Bother Me
TTITLE6=Worried Life Blues
TTITLE7=Honey, I Ran Out Of Lies
TTITLE8=Undercover Millionaire
TTITLE9=Blind Man Cryin' In The Middle Of Detroit
TTITLE10=Doctor Baker's Blues
TTITLE11=Death Bell Tollin'
EXTD=
EXTT0=
EXTT1=
EXTT2=
EXTT3=
EXTT4=
EXTT5=
EXTT6=
EXTT7=
EXTT8=
EXTT9=
EXTT10=
EXTT11=
PLAYORDER=
